<svg width="1280" height="1080" viewBox="0 0 1280 1080" fill="none" xmlns="http://www.w3.org/2000/svg">
<rect width="1280" height="1080" fill="white"/>
<path d="M307 181.5L443.5 76H449.5L454.5 81L458 90.5V313.5V487.5V504.5V520.5L477.5 606.5H300.5V190L303.5 185.5L307 181.5Z" stroke="black"/>
<path d="M561.952 969.5L557.115 954.5L531 803H829.393H841V810.5L805.212 963L799.409 975L791.671 984.5L781.031 993L768.941 997H595.321L580.329 993L570.173 982.5L561.952 969.5Z" stroke="black"/>
<path d="M463.5 619H239.5V685.5L268.5 824L274 832.5L280.5 836.5L287.5 839H374.5L488 813V665.5L479.5 619H463.5Z" stroke="black"/>
<path d="M478 490.5V275.5V266H595.5L604 268.5L609 273L614 280L616 288.5V397H863.5V351.5L869 341.5L876.5 336L884 333.5H942.5L968 346.5H1092V462L1059.5 503.5L1049.5 515L1039 524L1022.5 532.5L1000.5 537H976.5H843.5H823L804 543L787 551L775 559L761 569.5L742.5 579.5H650.5V490.5H478Z" stroke="black"/>
<path d="M483 522.5V507H630.358V596H751.801L769.077 588.5L792.451 572L809.22 560.5L827.512 553L848.346 549.5H983V572L973.346 592L959.626 610L904.24 672.5L884.931 701L865.114 747L848.346 789H532.289L483 522.5Z" stroke="black"/>
</svg>
